<svg xmlns="http://www.w3.org/2000/svg" data-name="Layer 1" id="Layer_1" version="1.1" viewBox="0 0 2048 2048">
  <defs>
    <style>
      .cls-1 {
        fill: #0c7cbd;
      }

      .cls-1, .cls-2 {
        stroke-width: 0px;
      }

      .cls-2 {
        fill: #fff;
      }
    </style>
  </defs>
  <rect class="cls-1" height="2048" rx="256.63" ry="256.63" width="2048" x="0"/>
  <g>
    <path class="cls-2" d="M390.05,902.38c-21.07-191.71-13.53-271.87-13.53-271.87,73.36-122.92,180.12-223.57,307.78-289.45.11-.06.17-.11.28-.17,94.26-48.58,199.93-78.22,311.95-83.81-410.09,257.25-672.99,690.12-377.43,1111.91,0,0-197.42-177.9-229.05-466.61Z"/>
    <path class="cls-2" d="M370.98,1405.47s-23.66-41.05-32.2-62.49c-91.21-197.06-102.58-451.01,20.15-681.29-.77,119.96,10.81,241.88,43.9,357.19,33.09,115.31,88.35,225.3,168.62,314.45,136.01,151.05,338.75,235.07,545.43,229.9-4.47.95-37.82,11.04-90.21,18.36-32.77,4.58-65.87,7.04-98.95,7.39-60.93.65-121.15-6.26-180.79-18.47-120.36-24.64-244.63-79.2-336.4-138.02-13.2-8.46-37.76-24.85-39.54-27Z"/>
    <path class="cls-2" d="M1058.01,1788.95c-60.56,1.94-123.8-3.83-182.93-16.41-51.54-10.97-101.92-27.3-150.09-48.66-47.37-21-92.59-46.85-134.75-76.97-41.89-29.92-80.76-64.06-115.86-101.72-31.09-33.36-59.22-69.48-83.93-107.81,97.11,67.6,380.69,223.97,727.97,138.5,341.92-84.21,423.45-349.91,425.9-358.25-49.1,265.42-282.89,452.68-486.31,571.31Z"/>
    <path class="cls-2" d="M1045.51,256.16c299.44,3.88,557.5,179.5,680.19,432.87v.06h-262.05s-131.94-196.34-395.87-202.67c-387.76-9.25-524.16,319.94-530.26,335.13,125.09-376.29,432.87-530.32,508-565.38Z"/>
    <path class="cls-2" d="M1801.91,1022.73c0,365.61-255.88,671.39-598.43,748.07-.23.06-5.42,1.2-7.08,1.54-37.23,7.94-75.42,13.25-114.41,15.59-.29,0-.57.06-.91.06h-.23c-.28,0-.63.06-.91.06s-.63.06-.97.06c465.41-240.7,497.61-640.56,497.61-640.56h-614.93v-208.61h835.7c.02.15.06.34.06.4,2.97,27.4,4.51,55.26,4.51,83.41Z"/>
  </g>
  
</svg>