<svg xmlns="http://www.w3.org/2000/svg" data-name="Layer 1" id="Layer_1" version="1.1" viewBox="0 0 7260.1 806.9">
  <defs>
    <style>
      .cls-1 {
        fill: #0c7cbd;
        stroke-width: 0px;
      }
    </style>
  </defs>
  <g>
    <g>
      <path class="cls-1" d="M2060.2,806.9V163.9h561v109.6h-451.4v423.8h452.3v109.6h-561.9Z"/>
      <rect class="cls-1" height="92.4" width="347.8" x="2249.2" y="439.2"/>
    </g>
    <g>
      <path class="cls-1" d="M5337.2,806.9V163.9h561v109.6h-451.4v423.8h452.3v109.6h-561.9Z"/>
      <rect class="cls-1" height="92.4" width="347.8" x="5526.2" y="439.2"/>
    </g>
    <path class="cls-1" d="M3356,806.9l-94.1-164.9h-296.9l51.8-88.9h192.5l-139.8-234.8-284.8,488.5h-125.2l360.8-607.6c6.3-10.9,13.8-19.6,22.5-25.9,8.6-6.3,19-9.5,31.1-9.5s22.3,3.2,30.7,9.5c8.3,6.3,15.7,15,22,25.9l361.6,607.6h-132Z"/>
    <path class="cls-1" d="M4133.2,806.9l-158.8-189.9h-234.8v-96.7h261.5c39.7,0,69.6-10.6,89.8-31.9,20.2-21.3,30.2-52.7,30.2-94.1s-10.5-71.9-31.5-91.5c-21-19.5-50.4-29.3-88.3-29.3h-341.2v533.4h-109.6V163.9h450.5c35.7,0,67.6,5.3,95.8,16,28.2,10.6,52.1,25.9,71.6,45.7,19.5,19.9,34.5,43.9,44.9,72.1,10.4,28.2,15.5,59.9,15.5,95,0,52.4-11.2,96.2-33.6,131.6-22.5,35.4-54.4,60.8-95.8,76.4l189,206.3h-155.4Z"/>
    <path class="cls-1" d="M5165.9,806.9l-120-449.7-177.8,408.2c-6.3,13.2-13.9,23.5-22.9,30.7-8.9,7.2-20,10.8-33.2,10.8-25.3,0-44-13.8-56.1-41.4l-176.9-408.2-120,449.7h-107.9l161.4-599c7.5-29.9,25.6-44.9,54.4-44.9s22.3,3.2,32.4,9.5c10.1,6.3,17.7,15.5,22.9,27.6l193.3,443.6,193.3-443.6c10.3-24.7,27.9-37.1,52.6-37.1s44,15,52.7,44.9l160.5,599h-108.8Z"/>
    <path class="cls-1" d="M6066.1,340v466.9h-104.4V229.5c0-20.1,5-36.1,15.1-47.9,10.1-11.8,23.7-17.7,41-17.7s15.8,1.7,23.3,5.2c7.5,3.4,15.2,9.2,23.3,17.2l442.8,439.3V163.9h104.4v577.4c0,20.7-5,36.8-15.1,48.3-10.1,11.5-23.2,17.3-39.3,17.3s-34.5-7.8-50.1-23.3l-441-443.6Z"/>
    <path class="cls-1" d="M6912.3,806.9V289.1h-238.2v-125.2h586v125.2h-238.2v517.9h-109.6Z"/>
    <path class="cls-1" d="M1594.6,806.9c-43.6,0-83.9-8.4-120.9-25.2-37-16.8-69.1-39.8-96.4-68.9-27.3-29.1-48.5-63.7-63.7-103.8-15.2-40-22.8-83.3-22.8-129.9s7.6-90.1,22.8-129c15.2-38.9,36.5-72,63.8-99.4,27.3-27.4,59.5-48.6,96.5-63.6,37.1-15,77.4-22.5,121.1-22.5h339.5v112.2h-339.5c-28.2,0-54.2,5.2-78,15.4-23.9,10.3-44.4,24.6-61.6,42.9-17.2,18.3-30.7,40.1-40.5,65.4-9.8,25.3-14.6,53.3-14.6,83.9s4.9,58,14.6,83.9c9.8,25.9,23.3,48.2,40.5,66.7,17.3,18.6,37.8,33.1,61.6,43.7,23.8,10.6,49.8,15.9,78,15.9h268v-167h-282.7v-94.5h392.1v373.7h-377.9Z"/>
  </g>
  <g>
    <g>
      <path class="cls-1" d="M919.6,0L131.1.4c-31.1,0-60.1,16-76.8,42.3L0,128.7h1054.8l-59.9-88.7C978.1,15,949.8,0,919.6,0Z"/>
      <path class="cls-1" d="M869.6,235.8c4,12.5,7.1,25.9,13.9,36.8,19.8,31.5,50.1,42.9,86.5,41.6,49-1.7,86.2-32.2,90.7-80.5,3.3-34.8.6-34.6.6-70.4h-193.1c0,31.1,0,26,0,56.4,0,5.4-.3,11,1.3,16Z"/>
      <path class="cls-1" d="M411.1,163.3h-193.2c0,36.3-.5,35.9.3,71,.2,8.7,3.5,17.6,7,25.8,16.2,38,51.4,56.7,100.4,54,43.9-2.4,79.4-36.8,83.9-80.5,2.5-24,1.2-16.3,1.5-42.1.1-9.2,0-18.4,0-28.1Z"/>
      <path class="cls-1" d="M127,310.3c36.4-9.6,60.1-34.9,63.9-71.9,3.8-36.1.8-37.5.8-75H.4C.4,200,0,200.4.8,236.2c.2,8.3,3.6,16.9,7.1,24.6,20.5,45.5,68.1,63,119.1,49.5Z"/>
      <path class="cls-1" d="M648.8,231.9c1.8,31.9,18.8,55.9,46.9,71.5,20.4,11.3,42.5,12.5,64.9,10.2,40.5-4.1,75.6-35.8,79-76.2,3-35.9.6-36.8.6-73.5h-191.8c0,35.3-1.5,34,.4,68Z"/>
      <path class="cls-1" d="M434.2,163.4c0,34.4-2,32.6.5,66.1,4,53.7,45.3,87.3,100,84.6,49.5-2.5,85.7-41.8,86.2-93.7.2-28,0-20.5,0-48.5,0-2.7-.5-5.5-.8-8.5h-185.8Z"/>
      <path class="cls-1" d="M902.7,327.5v305.1H154.3v-304.4c-21.8,10.6-46.5,14.7-73.8,13.2v366.6l895.9.8v-366.7c-36.2-3.5-57.4-6.7-73.8-14.6Z"/>
    </g>
    <path class="cls-1" d="M13.3,738.4s-6.4,68.5,72.8,68.5h884.2c79.2,0,72.8-68.5,72.8-68.5H13.3Z"/>
    <path class="cls-1" d="M547.5,574l14-39.5c7-19.7,22.5-35.2,42.2-42.2l39.5-14c20.6-7.3,20.9-36.3.5-44.1l-187.4-70.8c-14.7-5.6-29.1,8.8-23.6,23.6l70.8,187.4c7.7,20.5,36.8,20.2,44.1-.5Z"/>
  </g>
</svg>