<svg width="80" height="80" viewBox="0 0 80 80" fill="none" xmlns="http://www.w3.org/2000/svg">
<rect width="80" height="80" fill="#F9FAFB"/>
<path d="M42.85 39.8875C44.6125 39.8875 46.075 38.4625 46.075 36.6625C46.075 34.8625 44.65 33.4375 42.85 33.4375C41.05 33.4375 39.625 34.9375 39.625 36.7C39.625 38.4625 41.0875 39.8875 42.85 39.8875ZM42.85 35.1625C43.675 35.1625 44.3875 35.8375 44.3875 36.7C44.3875 37.5625 43.7125 38.2375 42.85 38.2375C41.9875 38.2375 41.3125 37.5625 41.3125 36.7C41.3125 35.8375 41.9875 35.1625 42.85 35.1625Z" fill="#637381"/>
<path d="M47.7625 28.675H32.2375C30.9625 28.675 29.9125 29.725 29.9125 31V49C29.9125 50.275 30.9625 51.3625 32.275 51.3625H47.7625C49.0375 51.3625 50.125 50.3125 50.125 49V31C50.0875 29.725 49.0375 28.675 47.7625 28.675ZM32.2375 30.3625H47.725C48.1 30.3625 48.4 30.6625 48.4 31.0375V44.125L45.6625 41.875C44.875 41.2375 43.75 41.275 43.0375 41.9875L39.9625 45.025L36.025 41.5C35.275 40.825 34.15 40.825 33.4 41.5L31.6 43.1125V31C31.6 30.625 31.9 30.3625 32.2375 30.3625ZM47.7625 49.675H32.2375C31.8625 49.675 31.5625 49.375 31.5625 49V45.3625L34.4875 42.7C34.6 42.5875 34.75 42.5875 34.8625 42.7L39.4 46.75C39.55 46.9 39.775 46.975 39.9625 46.975C40.1875 46.975 40.375 46.9 40.5625 46.7125L44.2 43.1125C44.3125 43 44.4625 43 44.575 43.1125L48.3625 46.2625V49C48.4 49.375 48.1 49.675 47.7625 49.675Z" fill="#637381"/>
</svg>
